<svg xmlns="http://www.w3.org/2000/svg" width="17" height="16" viewBox="0 0 17 16" fill="none">
  <g clip-path="url(#clip0_541_473)">
    <path d="M16.0025 8.05C16.0025 3.604 12.4205 0 8.00249 0C3.58249 0.001 0.000488281 3.604 0.000488281 8.051C0.000488281 12.068 2.92649 15.398 6.75049 16.002V10.377H4.72049V8.051H6.75249V6.276C6.75249 4.259 7.94749 3.145 9.77449 3.145C10.6505 3.145 11.5655 3.302 11.5655 3.302V5.282H10.5565C9.56349 5.282 9.25349 5.903 9.25349 6.54V8.05H11.4715L11.1175 10.376H9.25249V16.001C13.0765 15.397 16.0025 12.067 16.0025 8.05Z" fill="white"/>
  </g>
  <defs>
    <clipPath id="clip0_541_473">
      <rect width="16" height="16" fill="white" transform="translate(0.500488)"/>
    </clipPath>
  </defs>
</svg>