<svg xmlns="http://www.w3.org/2000/svg" width="16" height="16" viewBox="0 0 16 16" fill="none">
  <g clip-path="url(#clip0_541_467)">
    <path d="M8.00049 0C5.82949 0 5.55649 0.01 4.70349 0.048C3.85049 0.088 3.26949 0.222 2.76049 0.42C2.22658 0.620819 1.74298 0.935826 1.34349 1.343C0.936564 1.7427 0.621596 2.22624 0.420488 2.76C0.222488 3.268 0.0874883 3.85 0.0484883 4.7C0.0104883 5.555 0.000488281 5.827 0.000488281 8.001C0.000488281 10.173 0.0104883 10.445 0.0484883 11.298C0.0884883 12.15 0.222488 12.731 0.420488 13.24C0.625488 13.766 0.898488 14.212 1.34349 14.657C1.78749 15.102 2.23349 15.376 2.75949 15.58C3.26949 15.778 3.84949 15.913 4.70149 15.952C5.55549 15.99 5.82749 16 8.00049 16C10.1735 16 10.4445 15.99 11.2985 15.952C12.1495 15.912 12.7325 15.778 13.2415 15.58C13.7751 15.3791 14.2583 15.0641 14.6575 14.657C15.1025 14.212 15.3755 13.766 15.5805 13.24C15.7775 12.731 15.9125 12.15 15.9525 11.298C15.9905 10.445 16.0005 10.173 16.0005 8C16.0005 5.827 15.9905 5.555 15.9525 4.701C15.9125 3.85 15.7775 3.268 15.5805 2.76C15.3794 2.22623 15.0644 1.74268 14.6575 1.343C14.2581 0.935676 13.7745 0.620645 13.2405 0.42C12.7305 0.222 12.1485 0.087 11.2975 0.048C10.4435 0.01 10.1725 0 7.99849 0H8.00149H8.00049ZM7.28349 1.442H8.00149C10.1375 1.442 10.3905 1.449 11.2335 1.488C12.0135 1.523 12.4375 1.654 12.7195 1.763C13.0925 1.908 13.3595 2.082 13.6395 2.362C13.9195 2.642 14.0925 2.908 14.2375 3.282C14.3475 3.563 14.4775 3.987 14.5125 4.767C14.5515 5.61 14.5595 5.863 14.5595 7.998C14.5595 10.133 14.5515 10.387 14.5125 11.23C14.4775 12.01 14.3465 12.433 14.2375 12.715C14.1092 13.0624 13.9045 13.3764 13.6385 13.634C13.3585 13.914 13.0925 14.087 12.7185 14.232C12.4385 14.342 12.0145 14.472 11.2335 14.508C10.3905 14.546 10.1375 14.555 8.00149 14.555C5.86549 14.555 5.61149 14.546 4.76849 14.508C3.98849 14.472 3.56549 14.342 3.28349 14.232C2.93599 14.1039 2.62161 13.8996 2.36349 13.634C2.09724 13.376 1.89221 13.0617 1.76349 12.714C1.65449 12.433 1.52349 12.009 1.48849 11.229C1.45049 10.386 1.44249 10.133 1.44249 7.996C1.44249 5.86 1.45049 5.608 1.48849 4.765C1.52449 3.985 1.65449 3.561 1.76449 3.279C1.90949 2.906 2.08349 2.639 2.36349 2.359C2.64349 2.079 2.90949 1.906 3.28349 1.761C3.56549 1.651 3.98849 1.521 4.76849 1.485C5.50649 1.451 5.79249 1.441 7.28349 1.44V1.442ZM12.2715 2.77C12.1454 2.77 12.0206 2.79483 11.9041 2.84308C11.7876 2.89132 11.6818 2.96203 11.5927 3.05118C11.5035 3.14032 11.4328 3.24615 11.3846 3.36262C11.3363 3.4791 11.3115 3.60393 11.3115 3.73C11.3115 3.85607 11.3363 3.9809 11.3846 4.09738C11.4328 4.21385 11.5035 4.31968 11.5927 4.40882C11.6818 4.49797 11.7876 4.56868 11.9041 4.61692C12.0206 4.66517 12.1454 4.69 12.2715 4.69C12.5261 4.69 12.7703 4.58886 12.9503 4.40882C13.1303 4.22879 13.2315 3.98461 13.2315 3.73C13.2315 3.47539 13.1303 3.23121 12.9503 3.05118C12.7703 2.87114 12.5261 2.77 12.2715 2.77ZM8.00149 3.892C7.45656 3.8835 6.91538 3.98349 6.40947 4.18614C5.90355 4.3888 5.443 4.69007 5.05464 5.07242C4.66627 5.45478 4.35785 5.91057 4.14733 6.41326C3.93681 6.91595 3.82839 7.4555 3.82839 8.0005C3.82839 8.5455 3.93681 9.08505 4.14733 9.58774C4.35785 10.0904 4.66627 10.5462 5.05464 10.9286C5.443 11.3109 5.90355 11.6122 6.40947 11.8149C6.91538 12.0175 7.45656 12.1175 8.00149 12.109C9.08003 12.0922 10.1087 11.6519 10.8655 10.8833C11.6222 10.1146 12.0464 9.07917 12.0464 8.0005C12.0464 6.92183 11.6222 5.88641 10.8655 5.11775C10.1087 4.34909 9.08003 3.90883 8.00149 3.892ZM8.00149 5.333C8.70882 5.333 9.38718 5.61399 9.88734 6.11415C10.3875 6.61431 10.6685 7.29267 10.6685 8C10.6685 8.70733 10.3875 9.38569 9.88734 9.88585C9.38718 10.386 8.70882 10.667 8.00149 10.667C7.29416 10.667 6.61579 10.386 6.11563 9.88585C5.61547 9.38569 5.33449 8.70733 5.33449 8C5.33449 7.29267 5.61547 6.61431 6.11563 6.11415C6.61579 5.61399 7.29416 5.333 8.00149 5.333Z" fill="white"/>
  </g>
  <defs>
    <clipPath id="clip0_541_467">
      <rect width="16.0006" height="16.0003" fill="white" transform="translate(0.000488281)"/>
    </clipPath>
  </defs>
</svg>